<svg version="1.1" id="Capa_1" xmlns="http://www.w3.org/2000/svg" xmlns:xlink="http://www.w3.org/1999/xlink" x="0px" y="0px"
	 viewBox="0 0 610.694 610.694" style="enable-background:new 0 0 610.694 610.694;" xml:space="preserve">
	<path d="M584.596,403.113c-13.114-7.193-30.056-11.142-51.503-16.139c-11.22-2.614-23.61-5.509-36.988-9.239
		c3.916-91.125,15.977-169.155,38.897-255.954c1.808-6.845-0.685-14.108-6.317-18.4c-62.202-47.394-141.516-73.497-223.335-73.497
		S144.212,55.986,82.012,103.38c-5.632,4.29-8.127,11.553-6.317,18.4c22.925,86.799,34.983,164.828,38.901,255.954
		c-13.379,3.732-25.768,6.626-36.988,9.239c-21.449,4.997-38.389,8.944-51.505,16.139C8.782,412.613,0,427.289,0,446.738
		c0,38.744,33.825,73.78,95.244,98.652c56.404,22.841,131.02,35.421,210.103,35.421s153.699-12.58,210.103-35.421
		c61.419-24.873,95.244-59.908,95.244-98.652C610.696,427.289,601.915,412.613,584.596,403.113z M305.349,64.908
		c70.15,0,138.134,21.055,192.787,59.506c-20.906,81.99-32.534,159.265-36.71,246.275c-44.993,13.589-98.6,21.493-156.183,21.493
		c-57.494,0-111.024-7.88-155.969-21.429c-4.172-87.038-15.804-164.333-36.715-246.341
		C167.209,85.967,235.201,64.908,305.349,64.908z M305.349,545.789c-159.307,0-270.327-52.201-270.327-99.051
		c0-11.934,7.083-15.53,50.529-25.654c9.279-2.163,19.328-4.507,30.161-7.361c0.225,11.522,0.339,23.275,0.339,35.307
		c0,7.723,5.059,14.534,12.453,16.765c51.551,15.552,112.701,23.772,176.842,23.772c64.14,0,125.289-8.219,176.84-23.772
		c7.394-2.23,12.453-9.042,12.453-16.765c0-12.032,0.114-23.785,0.339-35.307c10.831,2.854,20.882,5.199,30.161,7.361
		c43.446,10.124,50.529,13.72,50.529,25.654C575.674,493.587,464.654,545.789,305.349,545.789z"/>
</svg>
