<?xml version="1.0" encoding="UTF-8" standalone="no"?>
<svg
   version="1.1"
   id="Capa_1"
   x="0px"
   y="0px"
   viewBox="0 0 610.694 610.694"
   style="background: #eee; enable-background:new 0 0 610.694 610.694;"
   xml:space="preserve"
   sodipodi:docname="tophat_white.svg"
   inkscape:export-filename="tophat_black.png"
   inkscape:export-xdpi="96"
   inkscape:export-ydpi="96"
   inkscape:version="1.2 (dc2aedaf03, 2022-05-15)"
   xmlns:inkscape="http://www.inkscape.org/namespaces/inkscape"
   xmlns:sodipodi="http://sodipodi.sourceforge.net/DTD/sodipodi-0.dtd"
   xmlns="http://www.w3.org/2000/svg"
   xmlns:svg="http://www.w3.org/2000/svg"><defs
   id="defs14" /><sodipodi:namedview
   id="namedview12"
   pagecolor="#505050"
   bordercolor="#eeeeee"
   borderopacity="1"
   inkscape:showpageshadow="0"
   inkscape:pageopacity="0"
   inkscape:pagecheckerboard="0"
   inkscape:deskcolor="#505050"
   showgrid="false"
   inkscape:zoom="1.3869467"
   inkscape:cx="157.17979"
   inkscape:cy="305.70749"
   inkscape:window-width="1920"
   inkscape:window-height="1027"
   inkscape:window-x="-8"
   inkscape:window-y="-8"
   inkscape:window-maximized="1"
   inkscape:current-layer="Capa_1" />
<path
   d="M584.596,403.113c-13.114-7.193-30.056-11.142-51.503-16.139c-11.22-2.614-23.61-5.509-36.988-9.239   c3.916-91.125,15.977-169.155,38.897-255.954c1.808-6.845-0.685-14.108-6.317-18.4c-62.202-47.394-141.516-73.497-223.335-73.497   S144.212,55.986,82.012,103.38c-5.632,4.29-8.127,11.553-6.317,18.4c22.925,86.799,34.983,164.828,38.901,255.954   c-13.379,3.732-25.768,6.626-36.988,9.239c-21.449,4.997-38.389,8.944-51.505,16.139C8.782,412.613,0,427.289,0,446.738   c0,38.744,33.825,73.78,95.244,98.652c56.404,22.841,131.02,35.421,210.103,35.421s153.699-12.58,210.103-35.421   c61.419-24.873,95.244-59.908,95.244-98.652C610.696,427.289,601.915,412.613,584.596,403.113z M305.349,64.908   c70.15,0,138.134,21.055,192.787,59.506c-20.906,81.99-32.534,159.265-36.71,246.275c-44.993,13.589-98.6,21.493-156.183,21.493   c-57.494,0-111.024-7.88-155.969-21.429c-4.172-87.038-15.804-164.333-36.715-246.341   C167.209,85.967,235.201,64.908,305.349,64.908z M305.349,545.789c-159.307,0-270.327-52.201-270.327-99.051   c0-11.934,7.083-15.53,50.529-25.654c9.279-2.163,19.328-4.507,30.161-7.361c0.225,11.522,0.339,23.275,0.339,35.307   c0,7.723,5.059,14.534,12.453,16.765c51.551,15.552,112.701,23.772,176.842,23.772c64.14,0,125.289-8.219,176.84-23.772   c7.394-2.23,12.453-9.042,12.453-16.765c0-12.032,0.114-23.785,0.339-35.307c10.831,2.854,20.882,5.199,30.161,7.361   c43.446,10.124,50.529,13.72,50.529,25.654C575.674,493.587,464.654,545.789,305.349,545.789z"
   id="path9" /><path
   style="fill:#241c1c;stroke-width:0.721008"
   d="m 279.03018,545.01228 c -42.17291,-2.30965 -66.73902,-5.1355 -96.9756,-11.15519 C 127.37664,522.97147 82.176365,504.58776 56.43786,482.76666 40.210637,469.00922 31.799145,450.80738 36.848516,440.37677 c 3.411432,-7.04708 10.763186,-9.77286 55.071345,-20.41856 11.891859,-2.8572 22.003329,-5.3414 22.469929,-5.52045 0.63386,-0.24324 0.90951,4.56451 1.0902,19.01493 l 0.24183,19.34048 2.00058,4.0738 c 3.48768,7.10202 6.41176,8.5107 30.49699,14.69199 68.76941,17.64915 156.94791,22.89736 236.078,14.05089 40.97008,-4.58031 96.20457,-16.58619 104.13493,-22.63497 1.3543,-1.03298 3.37979,-3.74644 4.5011,-6.02993 l 2.03873,-4.15178 0.24159,-19.31609 c 0.22051,-17.63107 0.34635,-19.28284 1.44253,-18.93493 0.66052,0.20964 11.392,2.82045 23.84774,5.8018 33.24071,7.95634 43.14312,11.0221 49.233,15.24239 11.62004,8.0527 4.27797,30.42876 -15.4809,47.18032 -37.97487,32.19508 -112.78966,54.71418 -203.48561,61.24875 -10.69485,0.77056 -62.6822,1.49295 -71.74032,0.99687 z"
   id="path838" /><path
   style="fill:#241c1c;stroke-width:0.721008"
   d="m 275.06464,391.09568 c -40.83008,-2.09163 -79.91104,-8.14119 -115.67208,-17.90553 l -9.78335,-2.67129 -0.8619,-15.10149 C 144.54963,281.8685 134.13398,211.81871 116.70319,139.90663 l -3.66255,-15.11014 1.89635,-1.5121 c 5.26359,-4.19704 24.09886,-15.2323 37.55625,-22.00355 37.22413,-18.729787 74.66245,-29.569132 118.60585,-34.339409 16.62028,-1.804214 51.87551,-1.804214 68.49579,0 49.54064,5.377885 94.24796,19.561404 134.52273,42.677699 10.20243,5.85584 23.37807,14.58717 23.37807,15.49235 0,0.42314 -1.27983,5.86489 -2.84406,12.09278 -17.8808,71.19124 -29.29853,149.76808 -33.38455,229.75254 l -0.18231,3.56866 -10.09411,2.75344 c -52.89066,14.42735 -116.44553,20.86382 -175.92601,17.81678 z"
   id="path840" /></svg>
